<?xml version="1.0" encoding="UTF-8" standalone="no"?>
<!-- Created with Inkscape (http://www.inkscape.org/) -->

<svg
   xmlns:dc="http://purl.org/dc/elements/1.1/"
   xmlns:cc="http://creativecommons.org/ns#"
   xmlns:rdf="http://www.w3.org/1999/02/22-rdf-syntax-ns#"
   xmlns:svg="http://www.w3.org/2000/svg"
   xmlns="http://www.w3.org/2000/svg"
   xmlns:sodipodi="http://sodipodi.sourceforge.net/DTD/sodipodi-0.dtd"
   xmlns:inkscape="http://www.inkscape.org/namespaces/inkscape"
   width="25.432318mm"
   height="18.585604mm"
   viewBox="0 0 90.114512 65.854501"
   id="svg6911"
   version="1.1"
   inkscape:version="0.91 r13725"
   sodipodi:docname="logo.svg">
  <defs
     id="defs6913" />
  <sodipodi:namedview
     id="base"
     pagecolor="#ffffff"
     bordercolor="#666666"
     borderopacity="1.0"
     inkscape:pageopacity="0.0"
     inkscape:pageshadow="2"
     inkscape:zoom="7.9195959"
     inkscape:cx="19.837714"
     inkscape:cy="25.251368"
     inkscape:document-units="px"
     inkscape:current-layer="g6931"
     showgrid="false"
     inkscape:window-width="1920"
     inkscape:window-height="1028"
     inkscape:window-x="-8"
     inkscape:window-y="-8"
     inkscape:window-maximized="1"
     fit-margin-top="0"
     fit-margin-left="0"
     fit-margin-right="0"
     fit-margin-bottom="0" />
  <metadata
     id="metadata6916">
    <rdf:RDF>
      <cc:Work
         rdf:about="">
        <dc:format>image/svg+xml</dc:format>
        <dc:type
           rdf:resource="http://purl.org/dc/dcmitype/StillImage" />
        <dc:title></dc:title>
      </cc:Work>
    </rdf:RDF>
  </metadata>
  <g
     inkscape:label="Camada 1"
     inkscape:groupmode="layer"
     id="layer1"
     transform="translate(-1.28571,-0.61484)">
    <g
       id="g6931"
       transform="translate(-189.65119,-545.90605)">
      <g
         id="g6981">
        <path
           d="m 210.99905,608.71389 c 0,2.025 1.6377,3.6615 3.66031,3.6615 l 26.80755,-0.001 -17.1489,-21.948 -12.68626,16.2315 10e-4,0 c -0.399,0.5895 -0.6339,1.296 -0.6339,2.0565"
           style="fill:#ce9209;fill-opacity:1;fill-rule:nonzero;stroke:none"
           id="path6866"
           inkscape:connector-curvature="0" />
        <path
           d="m 260.99241,550.17939 c 0,-2.0235 -1.641,-3.6585 -3.6615,-3.6585 l -26.80665,0.002 17.14815,21.948 12.687,-16.2315 -0.001,-0.002 c 0.402,-0.5865 0.6345,-1.2945 0.6345,-2.058"
           style="fill:#063a61;fill-opacity:1;fill-rule:nonzero;stroke:none"
           id="path6870"
           inkscape:connector-curvature="0" />
        <path
           d="m 191.41865,591.91689 0,0.0105 13.6641,17.427 c 1.26795,1.761 3.3024,2.922 5.62155,3.0015 l 0,0.0195 3.69721,0 0.034,-0.021 c -1.91251,-0.117 -3.43771,-1.692 -3.43771,-3.6405 0,-0.7605 0.2349,-1.467 0.6351,-2.055 l -0.001,0 12.68626,-16.2315 0.0164,0.018 17.13255,-21.927 -28.85011,-0.012 -2.0016,0.0675 c -2.16975,0.0945 -4.09335,1.1355 -5.3601,2.7285 l -0.023,0.012 -13.7496,17.5905 -0.001,0.0195 c -0.3351,0.4215 -0.5448,0.951 -0.5448,1.5345 0,0.5475 0.1827,1.047 0.4821,1.458"
           style="fill:#fcd205;fill-opacity:1;fill-rule:nonzero;stroke:none"
           id="path6868"
           inkscape:connector-curvature="0" />
        <path
           d="m 280.57041,566.97639 0,-0.012 -13.6605,-17.424 c -1.2705,-1.7595 -3.3075,-2.9235 -5.6205,-3.0015 l 0,-0.018 -3.7005,0 -0.0345,0.021 c 1.917,0.1155 3.438,1.689 3.438,3.6375 0,0.7635 -0.2325,1.47 -0.6345,2.058 l 10e-4,0.002 -12.687,16.23 -0.0135,-0.0195 -17.13585,21.9285 28.85085,0.009 2.001,-0.066 c 2.172,-0.096 4.092,-1.134 5.3595,-2.73 l 0.0255,-0.0105 13.749,-17.5905 0,-0.018 c 0.3345,-0.4215 0.543,-0.951 0.543,-1.5345 0,-0.5505 -0.18,-1.0485 -0.4815,-1.461"
           style="fill:#1082ce;fill-opacity:1;fill-rule:nonzero;stroke:none"
           id="path6872"
           inkscape:connector-curvature="0" />
      </g>
    </g>
  </g>
</svg>
